<?xml version="1.0" standalone="no"?>
<!DOCTYPE svg PUBLIC "-//W3C//DTD SVG 20010904//EN"
 "http://www.w3.org/TR/2001/REC-SVG-20010904/DTD/svg10.dtd">
<svg version="1.0" xmlns="http://www.w3.org/2000/svg"
 width="512.000000pt" height="512.000000pt" viewBox="0 0 512.000000 512.000000"
 preserveAspectRatio="xMidYMid meet">
<metadata>
Created by potrace 1.14, written by Peter Selinger 2001-2017
</metadata>
<g transform="translate(0.000000,512.000000) scale(0.100000,-0.100000)"
fill="#000000" stroke="none">
<path d="M1004 4992 c-139 -4 -133 9 -136 -292 l-3 -245 -65 -1 c-83 -1 -107
-9 -123 -42 -18 -37 -17 -656 1 -688 15 -29 53 -40 130 -38 l62 1 0 -1766 c0
-1726 1 -1767 20 -1791 l19 -25 1358 -1 c852 -1 1365 2 1376 8 10 5 35 26 56
46 20 20 129 125 241 232 112 107 227 218 257 247 l53 52 0 2140 c0 1178 -4
2140 -8 2139 -4 -1 -17 3 -29 10 -16 9 -385 12 -1570 14 -851 2 -1589 2 -1639
0z m2709 -166 c-4 -7 -2 -7 8 1 10 8 69 11 194 10 l180 -2 0 -2032 0 -2033
-247 0 c-165 0 -255 -4 -272 -11 -38 -18 -46 -58 -45 -234 0 -88 0 -185 0
-215 l-1 -55 -1250 0 c-1103 0 -1251 2 -1254 15 -2 8 -3 780 -2 1715 l1 1700
750 1 c533 1 754 -2 764 -10 11 -8 13 -8 8 0 -4 8 25 10 96 9 111 -1 152 11
166 48 4 12 7 169 7 349 -1 327 -1 328 -24 350 l-22 23 -870 0 c-479 0 -871 2
-871 5 -1 3 -2 89 -3 191 l-2 187 1348 -1 c976 0 1345 -3 1341 -11z"/>
<path d="M1871 3300 c-19 -3 -38 -12 -44 -21 -13 -21 -2 -65 19 -73 30 -11
1823 -7 1844 4 24 13 27 62 5 80 -12 10 -201 13 -903 14 -488 1 -902 -1 -921
-4z"/>
<path d="M1923 2642 c-6 -4 -129 -7 -273 -6 -281 1 -290 0 -290 -50 0 -53 -53
-51 1167 -51 787 -1 1141 2 1156 10 13 6 23 22 25 37 6 52 -15 56 -306 54
-144 0 -262 3 -262 7 0 5 -5 5 -12 1 -15 -10 -1187 -11 -1191 -2 -1 4 -7 4
-14 0z"/>
<path d="M2095 1920 c-390 -3 -715 -8 -721 -12 -20 -13 -23 -47 -5 -69 l17
-22 1147 0 c1220 0 1177 -2 1177 47 -1 52 14 51 -462 56 -244 3 -762 3 -1153
0z"/>
<path d="M1404 1201 c-30 -5 -44 -21 -44 -52 0 -18 7 -32 19 -39 13 -7 393
-10 1160 -10 1243 0 1171 -3 1171 54 0 52 48 50 -1159 50 -620 1 -1136 -1
-1147 -3z"/>
</g>
</svg>
